{
  "accessors": [
    {
      "bufferView": 2,
      "componentType": 5126,
      "count": 8281,
      "max": [
        0.9533230066299438,
        0.15015199780464172,
        6.250315189361572
      ],
      "min": [
        0.5197979807853699,
        -0.7274720072746277,
        5.547183036804199
      ],
      "type": "VEC3"
    },
    {
      "bufferView": 2,
      "byteOffset": 99372,
      "componentType": 5126,
      "count": 8281,
      "max": [
        0.9999728202819824,
        0.9985988140106201,
        0.9987381100654602
      ],
      "min": [
        -0.9999117851257324,
        -0.9984419941902161,
        -0.9971989393234253
      ],
      "type": "VEC3"
    },
    {
      "bufferView": 1,
      "componentType": 5126,
      "count": 8281,
      "max": [
        0.991100013256073,
        0.826200008392334
      ],
      "min": [
        0.009800000116229057,
        0.0038999998942017555
      ],
      "type": "VEC2"
    },
    {
      "bufferView": 0,
      "componentType": 5125,
      "count": 47232,
      "type": "SCALAR"
    },
    {
      "bufferView": 2,
      "byteOffset": 198744,
      "componentType": 5126,
      "count": 65532,
      "max": [
        2.0680971145629883,
        1.2651840448379517,
        6.351661205291748
      ],
      "min": [
        -1.5325700044631958,
        -1.7860629558563232,
        0.33667299151420593
      ],
      "type": "VEC3"
    },
    {
      "bufferView": 2,
      "byteOffset": 985128,
      "componentType": 5126,
      "count": 65532,
      "max": [
        0.9998396039009094,
        0.9999157190322876,
        0.9998014569282532
      ],
      "min": [
        -0.9999927282333374,
        -0.9999774694442749,
        -0.9999115467071533
      ],
      "type": "VEC3"
    },
    {
      "bufferView": 1,
      "byteOffset": 66248,
      "componentType": 5126,
      "count": 65532,
      "max": [
        0.9970999956130981,
        0.9975000023841858
      ],
      "min": [
        0.012000000104308128,
        0.0019000000320374966
      ],
      "type": "VEC2"
    },
    {
      "bufferView": 0,
      "byteOffset": 188928,
      "componentType": 5125,
      "count": 364377,
      "type": "SCALAR"
    },
    {
      "bufferView": 2,
      "byteOffset": 1771512,
      "componentType": 5126,
      "count": 41510,
      "max": [
        2.068063974380493,
        1.3783090114593506,
        6.214022159576416
      ],
      "min": [
        -1.6763590574264526,
        -1.8337570428848267,
        0.035232000052928925
      ],
      "type": "VEC3"
    },
    {
      "bufferView": 2,
      "byteOffset": 2269632,
      "componentType": 5126,
      "count": 41510,
      "max": [
        0.9999891519546509,
        0.9999715089797974,
        0.9999879598617554
      ],
      "min": [
        -0.9999330043792725,
        -0.9999901056289673,
        -0.9991424083709717
      ],
      "type": "VEC3"
    },
    {
      "bufferView": 1,
      "byteOffset": 590504,
      "componentType": 5126,
      "count": 41510,
      "max": [
        0.9728000164031982,
        0.9934999942779541
      ],
      "min": [
        0.004399999976158142,
        0.0019000000320374966
      ],
      "type": "VEC2"
    },
    {
      "bufferView": 0,
      "byteOffset": 1646436,
      "componentType": 5125,
      "count": 224295,
      "type": "SCALAR"
    },
    {
      "bufferView": 2,
      "byteOffset": 2767752,
      "componentType": 5126,
      "count": 57053,
      "max": [
        1.874945044517517,
        1.3456939458847046,
        4.889607906341553
      ],
      "min": [
        -1.4540239572525024,
        -2.172076940536499,
        0.5143830180168152
      ],
      "type": "VEC3"
    },
    {
      "bufferView": 2,
      "byteOffset": 3452388,
      "componentType": 5126,
      "count": 57053,
      "max": [
        0.9999922513961792,
        0.9998983144760132,
        0.9992837905883789
      ],
      "min": [
        -0.9999939203262329,
        -0.9999953508377075,
        -0.9999958276748657
      ],
      "type": "VEC3"
    },
    {
      "bufferView": 1,
      "byteOffset": 922584,
      "componentType": 5126,
      "count": 57053,
      "max": [
        0.9915000200271606,
        0.9961000084877014
      ],
      "min": [
        0.0,
        0.0
      ],
      "type": "VEC2"
    },
    {
      "bufferView": 0,
      "byteOffset": 2543616,
      "componentType": 5125,
      "count": 328608,
      "type": "SCALAR"
    },
    {
      "bufferView": 2,
      "byteOffset": 4137024,
      "componentType": 5126,
      "count": 65532,
      "max": [
        1.4997830390930176,
        1.5041979551315308,
        7.4753499031066895
      ],
      "min": [
        -1.2465369701385498,
        -1.4891389608383179,
        0.8669250011444092
      ],
      "type": "VEC3"
    },
    {
      "bufferView": 2,
      "byteOffset": 4923408,
      "componentType": 5126,
      "count": 65532,
      "max": [
        0.9999552965164185,
        0.9999946355819702,
        0.9999854564666748
      ],
      "min": [
        -0.9999973773956299,
        -0.9999955892562866,
        -0.9999743700027466
      ],
      "type": "VEC3"
    },
    {
      "bufferView": 1,
      "byteOffset": 1379008,
      "componentType": 5126,
      "count": 65532,
      "max": [
        0.986299991607666,
        0.9901999831199646
      ],
      "min": [
        0.009800000116229057,
        0.009800000116229057
      ],
      "type": "VEC2"
    },
    {
      "bufferView": 0,
      "byteOffset": 3858048,
      "componentType": 5125,
      "count": 385236,
      "type": "SCALAR"
    },
    {
      "bufferView": 2,
      "byteOffset": 5709792,
      "componentType": 5126,
      "count": 47256,
      "max": [
        1.5740230083465576,
        1.4650299549102783,
        7.616197109222412
      ],
      "min": [
        -1.2353999614715576,
        -1.8914580345153809,
        0.8806319832801819
      ],
      "type": "VEC3"
    },
    {
      "bufferView": 2,
      "byteOffset": 6276864,
      "componentType": 5126,
      "count": 47256,
      "max": [
        0.9999654293060303,
        0.999929666519165,
        0.9997109770774841
      ],
      "min": [
        -0.9999583959579468,
        -0.9999877214431763,
        -0.9999388456344604
      ],
      "type": "VEC3"
    },
    {
      "bufferView": 1,
      "byteOffset": 1903264,
      "componentType": 5126,
      "count": 47256,
      "max": [
        0.986299991607666,
        0.9901999831199646
      ],
      "min": [
        0.005900000222027302,
        0.005900000222027302
      ],
      "type": "VEC2"
    },
    {
      "bufferView": 0,
      "byteOffset": 5398992,
      "componentType": 5125,
      "count": 263628,
      "type": "SCALAR"
    }
  ],
  "asset": {
    "extras": {
      "author": "Robukan (https://sketchfab.com/robukan)",
      "license": "CC-BY-NC-ND-4.0 (http://creativecommons.org/licenses/by-nc-nd/4.0/)",
      "source": "https://sketchfab.com/3d-models/goku-ssj-83ff7cfbf164466a8908377fb605bd7d",
      "title": "Goku SSJ"
    },
    "generator": "Sketchfab-12.68.0",
    "version": "2.0"
  },
  "bufferViews": [
    {
      "buffer": 0,
      "byteLength": 6453504,
      "name": "floatBufferViews",
      "target": 34963
    },
    {
      "buffer": 0,
      "byteLength": 2281312,
      "byteOffset": 6453504,
      "byteStride": 8,
      "name": "floatBufferViews",
      "target": 34962
    },
    {
      "buffer": 0,
      "byteLength": 6843936,
      "byteOffset": 8734816,
      "byteStride": 12,
      "name": "floatBufferViews",
      "target": 34962
    }
  ],
  "buffers": [
    {
      "byteLength": 15578752,
      "uri": "scene.bin"
    }
  ],
  "extensionsUsed": [
    "KHR_materials_unlit"
  ],
  "images": [
    {
      "uri": "textures/eyes.png_baseColor.png"
    },
    {
      "uri": "textures/face.png_baseColor.png"
    },
    {
      "uri": "textures/pants.png_baseColor.png"
    },
    {
      "uri": "textures/top.png_baseColor.png"
    }
  ],
  "materials": [
    {
      "doubleSided": true,
      "extensions": {
        "KHR_materials_unlit": {}
      },
      "name": "eyes.png",
      "pbrMetallicRoughness": {
        "baseColorTexture": {
          "index": 0
        },
        "metallicFactor": 0.0
      }
    },
    {
      "doubleSided": true,
      "extensions": {
        "KHR_materials_unlit": {}
      },
      "name": "face.png",
      "pbrMetallicRoughness": {
        "baseColorTexture": {
          "index": 1
        },
        "metallicFactor": 0.0
      }
    },
    {
      "doubleSided": true,
      "extensions": {
        "KHR_materials_unlit": {}
      },
      "name": "pants.png",
      "pbrMetallicRoughness": {
        "baseColorTexture": {
          "index": 2
        },
        "metallicFactor": 0.0
      }
    },
    {
      "doubleSided": true,
      "extensions": {
        "KHR_materials_unlit": {}
      },
      "name": "top.png",
      "pbrMetallicRoughness": {
        "baseColorTexture": {
          "index": 3
        },
        "metallicFactor": 0.0
      }
    }
  ],
  "meshes": [
    {
      "name": "Object_0",
      "primitives": [
        {
          "attributes": {
            "NORMAL": 1,
            "POSITION": 0,
            "TEXCOORD_0": 2
          },
          "indices": 3,
          "material": 0,
          "mode": 4
        }
      ]
    },
    {
      "name": "Object_1",
      "primitives": [
        {
          "attributes": {
            "NORMAL": 5,
            "POSITION": 4,
            "TEXCOORD_0": 6
          },
          "indices": 7,
          "material": 1,
          "mode": 4
        }
      ]
    },
    {
      "name": "Object_2",
      "primitives": [
        {
          "attributes": {
            "NORMAL": 9,
            "POSITION": 8,
            "TEXCOORD_0": 10
          },
          "indices": 11,
          "material": 1,
          "mode": 4
        }
      ]
    },
    {
      "name": "Object_3",
      "primitives": [
        {
          "attributes": {
            "NORMAL": 13,
            "POSITION": 12,
            "TEXCOORD_0": 14
          },
          "indices": 15,
          "material": 2,
          "mode": 4
        }
      ]
    },
    {
      "name": "Object_4",
      "primitives": [
        {
          "attributes": {
            "NORMAL": 17,
            "POSITION": 16,
            "TEXCOORD_0": 18
          },
          "indices": 19,
          "material": 3,
          "mode": 4
        }
      ]
    },
    {
      "name": "Object_5",
      "primitives": [
        {
          "attributes": {
            "NORMAL": 21,
            "POSITION": 20,
            "TEXCOORD_0": 22
          },
          "indices": 23,
          "material": 3,
          "mode": 4
        }
      ]
    }
  ],
  "nodes": [
    {
      "children": [
        1
      ],
      "matrix": [
        1.0,
        0.0,
        0.0,
        0.0,
        0.0,
        2.220446049250313e-16,
        -1.0,
        0.0,
        0.0,
        1.0,
        2.220446049250313e-16,
        0.0,
        0.0,
        0.0,
        0.0,
        1.0
      ],
      "name": "Sketchfab_model"
    },
    {
      "children": [
        2,
        3,
        4,
        5,
        6,
        7
      ],
      "name": "Goku_SSJ.obj.cleaner.materialmerger.gles"
    },
    {
      "mesh": 0,
      "name": "Object_2"
    },
    {
      "mesh": 1,
      "name": "Object_3"
    },
    {
      "mesh": 2,
      "name": "Object_4"
    },
    {
      "mesh": 3,
      "name": "Object_5"
    },
    {
      "mesh": 4,
      "name": "Object_6"
    },
    {
      "mesh": 5,
      "name": "Object_7"
    }
  ],
  "samplers": [
    {
      "magFilter": 9729,
      "minFilter": 9987,
      "wrapS": 10497,
      "wrapT": 10497
    }
  ],
  "scene": 0,
  "scenes": [
    {
      "name": "Sketchfab_Scene",
      "nodes": [
        0
      ]
    }
  ],
  "textures": [
    {
      "sampler": 0,
      "source": 0
    },
    {
      "sampler": 0,
      "source": 1
    },
    {
      "sampler": 0,
      "source": 2
    },
    {
      "sampler": 0,
      "source": 3
    }
  ]
}
